<svg xmlns="http://www.w3.org/2000/svg" version="1.1" xmlns:xlink="http://www.w3.org/1999/xlink" xmlns:svgjs="http://svgjs.dev/svgjs" width="128" height="128" viewBox="0 0 128 128"><g transform="matrix(0.8046875,0,0,0.8046875,12.760752631578946,26.931372150516268)"><svg viewBox="0 0 95 69" data-background-color="#e8f2f1" preserveAspectRatio="xMidYMid meet" height="92" width="128" xmlns="http://www.w3.org/2000/svg" xmlns:xlink="http://www.w3.org/1999/xlink"><g id="tight-bounds" transform="matrix(1,0,0,1,-0.24049999999999727,0.04940071408192637)"><svg viewBox="0 0 95.481 68.46653318436586" height="68.46653318436586" width="95.481"><g><svg viewBox="0 0 95.481 68.46653318436586" height="68.46653318436586" width="95.481"><g><svg viewBox="0 0 95.481 68.46653318436586" height="68.46653318436586" width="95.481"><g id="textblocktransform"><svg viewBox="0 0 95.481 68.46653318436586" height="68.46653318436586" width="95.481" id="textblock"><g><svg viewBox="0 0 95.481 68.46653318436586" height="68.46653318436586" width="95.481"><g><svg viewBox="0 0 95.481 68.46653318436586" height="68.46653318436586" width="95.481"><g><svg xmlns="http://www.w3.org/2000/svg" xmlns:xlink="http://www.w3.org/1999/xlink" version="1.1" x="0" y="0" viewBox="4.8100000000000005 17.204 86.10878266794202 61.746" enable-background="new 0 0 100 100" xml:space="preserve" height="68.46653318436586" width="95.481" class="icon-icon-0" data-fill-palette-color="accent" id="icon-0"><path d="M90.839 51.986c-0.24-0.63-0.945-0.946-1.575-0.707-0.06 0.023-0.103 0.068-0.157 0.099-0.141 0.51-0.328 1.002-0.545 1.483 0.242 0.624 0.943 0.938 1.57 0.7C90.762 53.321 91.078 52.616 90.839 51.986z" fill="#ff5093" data-fill-palette-color="accent"></path><path d="M7.871 32.197c0.161-0.699 0.421-1.361 0.724-2.007-0.209-0.13-0.447-0.217-0.711-0.2-0.673 0.044-1.182 0.624-1.139 1.297 0.039 0.606 0.52 1.057 1.106 1.113C7.865 32.333 7.856 32.263 7.871 32.197z" fill="#ff5093" data-fill-palette-color="accent"></path><circle cx="45.494" cy="56.342" r="23" fill="#ff5093" data-fill-palette-color="accent"></circle><circle cx="68.507" cy="65.429" r="1.2" fill="#ff5093" data-fill-palette-color="accent"></circle><circle cx="72.267" cy="65.074" r="1.2" fill="#ff5093" data-fill-palette-color="accent"></circle><circle cx="76.027" cy="64.209" r="1.2" fill="#ff5093" data-fill-palette-color="accent"></circle><circle cx="79.786" cy="63.343" r="1.2" fill="#ff5093" data-fill-palette-color="accent"></circle><circle cx="6.03" cy="36.437" r="1.2" fill="#ff5093" data-fill-palette-color="accent"></circle><circle cx="6.743" cy="41.112" r="1.2" fill="#ff5093" data-fill-palette-color="accent"></circle><circle cx="8.87" cy="44.33" r="1.2" fill="#ff5093" data-fill-palette-color="accent"></circle><circle cx="10.997" cy="47.987" r="1.2" fill="#ff5093" data-fill-palette-color="accent"></circle><circle cx="14.206" cy="50.129" r="1.2" fill="#ff5093" data-fill-palette-color="accent"></circle><circle cx="17.415" cy="52.271" r="1.2" fill="#ff5093" data-fill-palette-color="accent"></circle><circle cx="20.624" cy="54.412" r="1.2" fill="#ff5093" data-fill-palette-color="accent"></circle><circle cx="83.087" cy="61.419" r="1.2" fill="#ff5093" data-fill-palette-color="accent"></circle><circle cx="86.044" cy="58.941" r="1.2" fill="#ff5093" data-fill-palette-color="accent"></circle><circle cx="89" cy="56.462" r="1.2" fill="#ff5093" data-fill-palette-color="accent"></circle><path d="M88.557 52.854c-0.217-0.57 0.036-1.183 0.55-1.476 0.037-0.135 0.113-0.255 0.144-0.392 0.142-0.616 0.208-1.24 0.234-1.868-0.097 0.368-0.343 0.691-0.725 0.836-0.63 0.24-1.335-0.077-1.574-0.707-0.24-0.63 0.077-1.335 0.707-1.574 0.63-0.24 1.335 0.076 1.574 0.706 0.006 0.016 0.003 0.032 0.008 0.048-0.206-7.926-9.31-16.527-22.923-22.268-4.129-5.432-10.64-8.955-17.99-8.955-3.777 0-7.33 0.939-10.46 2.577-14.545-0.588-26.19 3.298-29.514 10.423 0.132 0.091 0.248 0.209 0.338 0.353 0.358 0.571 0.187 1.324-0.384 1.683-0.215 0.135-0.455 0.172-0.691 0.164-1.399 6.697 4.164 14.16 13.877 20.113 1.842-11.472 11.781-20.274 23.766-20.274 13.289 0 24.102 10.812 24.102 24.099 0 2.342-0.352 4.601-0.979 6.744 9.975-1.098 17.44-4.698 19.946-10.225C88.561 52.858 88.558 52.857 88.557 52.854zM11.808 30.188c-0.571 0.359-1.324 0.187-1.683-0.384-0.358-0.571-0.187-1.324 0.384-1.683 0.571-0.359 1.324-0.187 1.682 0.384C12.551 29.076 12.379 29.829 11.808 30.188zM14.966 27.838c-0.641 0.207-1.329-0.144-1.537-0.786-0.207-0.641 0.144-1.329 0.786-1.537 0.641-0.207 1.329 0.144 1.537 0.786C15.958 26.943 15.607 27.631 14.966 27.838zM18.636 26.651c-0.641 0.207-1.329-0.144-1.537-0.786-0.208-0.641 0.144-1.329 0.786-1.537 0.641-0.207 1.329 0.144 1.537 0.786C19.629 25.756 19.277 26.444 18.636 26.651zM22.307 25.464c-0.641 0.208-1.329-0.144-1.537-0.786-0.207-0.641 0.144-1.329 0.786-1.537s1.329 0.144 1.537 0.786C23.3 24.568 22.948 25.256 22.307 25.464zM25.978 24.277c-0.641 0.208-1.329-0.144-1.537-0.786-0.207-0.641 0.144-1.329 0.786-1.537 0.641-0.207 1.329 0.144 1.537 0.786C26.971 23.381 26.619 24.069 25.978 24.277zM29.698 23.939c-0.673-0.042-1.184-0.622-1.142-1.294 0.042-0.673 0.622-1.184 1.294-1.142 0.673 0.042 1.184 0.622 1.142 1.294C30.95 23.469 30.371 23.981 29.698 23.939zM33.549 24.18c-0.673-0.042-1.184-0.622-1.142-1.294 0.042-0.673 0.622-1.184 1.294-1.142 0.673 0.042 1.184 0.622 1.142 1.294C34.801 23.71 34.221 24.222 33.549 24.18zM37.399 24.421c-0.673-0.042-1.184-0.622-1.142-1.294 0.042-0.673 0.622-1.184 1.294-1.142 0.673 0.042 1.184 0.622 1.142 1.294C38.651 23.951 38.072 24.463 37.399 24.421zM41.25 24.662c-0.673-0.042-1.184-0.622-1.142-1.294 0.042-0.673 0.622-1.184 1.294-1.142 0.673 0.042 1.184 0.622 1.142 1.294C42.502 24.192 41.922 24.704 41.25 24.662zM45.962 25.288c-0.662-0.127-1.095-0.767-0.967-1.429s0.768-1.095 1.429-0.967 1.095 0.768 0.967 1.429C47.264 24.982 46.624 25.415 45.962 25.288zM49.751 26.018c-0.662-0.128-1.095-0.768-0.967-1.429 0.128-0.662 0.768-1.095 1.429-0.967 0.662 0.128 1.095 0.767 0.967 1.429C51.052 25.713 50.412 26.146 49.751 26.018zM53.539 26.748c-0.662-0.128-1.095-0.768-0.967-1.429 0.128-0.662 0.768-1.095 1.429-0.967 0.662 0.127 1.095 0.767 0.967 1.429S54.201 26.876 53.539 26.748zM57.327 27.479c-0.662-0.128-1.095-0.768-0.967-1.429 0.128-0.662 0.768-1.095 1.429-0.967 0.662 0.128 1.095 0.768 0.967 1.429S57.989 27.607 57.327 27.479zM63.371 28.246c-0.26 0.622-0.974 0.916-1.596 0.656-0.622-0.259-0.916-0.974-0.656-1.596 0.259-0.622 0.974-0.916 1.596-0.656C63.337 26.909 63.631 27.624 63.371 28.246zM66.932 29.732c-0.26 0.622-0.974 0.916-1.596 0.656-0.622-0.26-0.916-0.974-0.656-1.596 0.26-0.622 0.974-0.916 1.596-0.656C66.897 28.395 67.191 29.11 66.932 29.732zM70.492 31.218c-0.26 0.622-0.974 0.916-1.596 0.656-0.622-0.26-0.916-0.974-0.656-1.596 0.26-0.622 0.974-0.916 1.596-0.656C70.458 29.881 70.752 30.596 70.492 31.218zM74.052 32.704c-0.26 0.622-0.974 0.916-1.596 0.656-0.622-0.26-0.916-0.974-0.656-1.596 0.26-0.622 0.974-0.916 1.596-0.656C74.018 31.367 74.312 32.082 74.052 32.704zM77.611 35.508c-0.447 0.505-1.218 0.552-1.723 0.105-0.505-0.447-0.552-1.218-0.105-1.723 0.447-0.505 1.218-0.552 1.723-0.105C78.01 34.232 78.057 35.003 77.611 35.508zM80.5 38.065c-0.447 0.505-1.218 0.552-1.723 0.105-0.505-0.447-0.552-1.218-0.105-1.723 0.447-0.505 1.218-0.552 1.722-0.105C80.899 36.789 80.946 37.56 80.5 38.065zM83.389 40.622c-0.447 0.505-1.218 0.552-1.723 0.105-0.505-0.447-0.552-1.218-0.105-1.723 0.447-0.505 1.218-0.552 1.723-0.105C83.789 39.346 83.836 40.117 83.389 40.622zM84.556 43.283c-0.505-0.447-0.552-1.218-0.105-1.723 0.447-0.505 1.218-0.552 1.723-0.105 0.505 0.447 0.552 1.218 0.105 1.723C85.832 43.683 85.06 43.73 84.556 43.283zM85.813 45.643c-0.24-0.63 0.077-1.335 0.707-1.575 0.63-0.24 1.335 0.077 1.575 0.707 0.24 0.63-0.077 1.335-0.707 1.575C86.758 46.589 86.053 46.273 85.813 45.643z" fill="#ff5093" data-fill-palette-color="accent"></path></svg></g></svg></g></svg></g></svg></g></svg></g></svg></g><defs></defs></svg><rect width="95.481" height="68.46653318436586" fill="none" stroke="none" visibility="hidden"></rect></g></svg></g></svg>