<svg xmlns="http://www.w3.org/2000/svg" version="1.1" xmlns:xlink="http://www.w3.org/1999/xlink" xmlns:svgjs="http://svgjs.dev/svgjs" width="128" height="128" viewBox="0 0 128 128"><g transform="matrix(0.8046875,0,0,0.8046875,12.620883189674885,1.1518606496710504)"><svg viewBox="0 0 77 95" data-background-color="#fff4e6" preserveAspectRatio="xMidYMid meet" height="157" width="128" xmlns="http://www.w3.org/2000/svg" xmlns:xlink="http://www.w3.org/1999/xlink"><g id="tight-bounds" transform="matrix(1,0,0,1,-0.09036898645598512,-0.24049999999999727)"><svg viewBox="0 0 77.18073797291198 95.481" height="95.481" width="77.18073797291198"><g><svg viewBox="0 0 77.18073797291198 95.481" height="95.481" width="77.18073797291198"><g><svg viewBox="0 0 77.18073797291198 95.481" height="95.481" width="77.18073797291198"><g id="textblocktransform"><svg viewBox="0 0 77.18073797291198 95.481" height="95.481" width="77.18073797291198" id="textblock"><g><svg viewBox="0 0 77.18073797291198 95.481" height="95.481" width="77.18073797291198"><g><svg viewBox="0 0 77.18073797291198 95.481" height="95.481" width="77.18073797291198"><g><svg xmlns="http://www.w3.org/2000/svg" xmlns:xlink="http://www.w3.org/1999/xlink" version="1.1" x="0" y="0" viewBox="13.624863233920049 5 72.75024787719106 90" enable-background="new 0 0 100 100" xml:space="preserve" height="95.481" width="77.18073797291198" class="icon-icon-0" data-fill-palette-color="accent" id="icon-0"></svg></g></svg></g></svg></g></svg></g></svg></g></svg></g><defs></defs><mask id="df9637eb-8e2d-48d4-b8cc-2a5b7adc8374"><g id="SvgjsG1874"><svg viewBox="0 0 77.18073797291198 95.481" height="95.481" width="77.18073797291198"><g><svg viewBox="0 0 77.18073797291198 95.481" height="95.481" width="77.18073797291198"><g><svg viewBox="0 0 77.18073797291198 95.481" height="95.481" width="77.18073797291198"><g id="SvgjsG1873"><svg viewBox="0 0 77.18073797291198 95.481" height="95.481" width="77.18073797291198" id="SvgjsSvg1872"><g><svg viewBox="0 0 77.18073797291198 95.481" height="95.481" width="77.18073797291198"><g><svg viewBox="0 0 77.18073797291198 95.481" height="95.481" width="77.18073797291198"><g><svg xmlns="http://www.w3.org/2000/svg" xmlns:xlink="http://www.w3.org/1999/xlink" version="1.1" x="0" y="0" viewBox="13.624863233920049 5 72.75024787719106 90" enable-background="new 0 0 100 100" xml:space="preserve" height="95.481" width="77.18073797291198" class="icon-icon-0" data-fill-palette-color="accent" id="SvgjsSvg1871"><path d="M83.544 61.669c-4.701-7.18-4.504-24.181-1.998-29.826 1.386-3.126-0.103-3.191-0.103-3.191h-9.737H61.97c0 0-1.491 0.065-0.104 3.191 2.505 5.645 2.701 22.646-2 29.826-6.368 9.729 0 17.306 0 17.306h11.84 11.838C83.544 78.975 89.914 71.397 83.544 61.669z" fill="white"></path><path d="M73.858 8.848c0.602-0.407 0.979-0.979 0.979-1.615C74.838 6 73.437 5 71.706 5c-1.732 0-3.134 1-3.134 2.233 0 0.635 0.378 1.208 0.979 1.615 0.697-0.097 1.419-0.154 2.155-0.154C72.443 8.694 73.162 8.751 73.858 8.848z" fill="white"></path><path d="M73.858 9.919c-0.696-0.095-1.415-0.15-2.152-0.15-0.736 0-1.457 0.055-2.155 0.15-5.4 0.742-9.489 4.208-9.489 8.375 0 1.701 0.688 3.28 1.861 4.612h19.565c1.173-1.333 1.86-2.912 1.86-4.612C83.349 14.127 79.26 10.662 73.858 9.919z" fill="white"></path><path d="M81.91 24.41h-0.422H61.923h-0.422c-0.708 0-1.282 0.613-1.282 1.37 0 0.756 0.574 1.369 1.282 1.369h3.153 14.104 3.151c0.709 0 1.283-0.613 1.283-1.369C83.193 25.023 82.619 24.41 81.91 24.41z" fill="white"></path><path d="M81.91 80.479h-0.422H61.923h-0.422c-0.708 0-1.282 0.613-1.282 1.37 0 0.758 0.574 1.37 1.282 1.37h3.153 14.104 3.151c0.709 0 1.283-0.612 1.283-1.37C83.193 81.092 82.619 80.479 81.91 80.479z" fill="white"></path><path d="M82.269 84.722H61.142c-1.269 1.438-2.014 3.145-2.014 4.984 0 1.836 0.743 3.544 2.01 4.981h21.136c1.267-1.438 2.01-3.146 2.01-4.981C84.283 87.866 83.536 86.159 82.269 84.722z" fill="white"></path><path d="M31.794 35.007c-0.697-0.095-1.416-0.151-2.153-0.151-0.736 0-1.458 0.056-2.155 0.151-5.4 0.741-9.489 4.207-9.489 8.374 0 1.7 0.688 3.28 1.861 4.612h19.564c1.174-1.332 1.861-2.912 1.861-4.612C41.283 39.214 37.195 35.748 31.794 35.007z" fill="white"></path><path d="M39.845 49.496h-0.423H19.854h-0.42c-0.709 0-1.282 0.613-1.282 1.37 0 0.756 0.573 1.368 1.282 1.368h3.152 14.106 3.151c0.707 0 1.282-0.612 1.282-1.368C41.127 50.109 40.552 49.496 39.845 49.496z" fill="white"></path><g fill="white"><path d="M43.693 95H15.586l-0.276-0.358c-0.151-0.192-3.624-4.849-0.138-14.435 2.577-7.085 4.708-19.209 3.43-22.733-0.551-1.514-0.598-2.518-0.149-3.157 0.254-0.362 0.662-0.579 1.093-0.579l20.167 0.002c0 0 0.002 0 0.004 0 0.45 0 0.857 0.216 1.111 0.577 0.448 0.64 0.401 1.644-0.148 3.157-1.279 3.524 0.852 15.648 3.429 22.733 3.486 9.586 0.014 14.242-0.138 14.435L43.693 95zM16.553 93.158h26.174c0.63-1.174 2.237-5.203-0.352-12.321-2.417-6.649-5.017-19.61-3.428-23.992 0.231-0.635 0.312-1.033 0.334-1.266l-19.282 0.002c0.024 0.231 0.104 0.629 0.333 1.264 1.59 4.382-1.011 17.343-3.429 23.992C14.315 87.955 15.922 91.984 16.553 93.158z" fill="white"></path></g><path d="M37.588 69.474H21.69c-0.401 3.938-1.698 9.024-2.97 12.184-2.69 6.684 0 9.828 0 9.828h10.415 0.504 0.503 10.416c0 0 2.692-3.145 0-9.828C39.286 78.498 37.989 73.411 37.588 69.474z" fill="white"></path></svg></g></svg></g></svg></g></svg></g></svg></g></svg></g><defs><mask></mask></defs></svg><rect width="77.18073797291198" height="95.481" fill="black" stroke="none" visibility="hidden"></rect></g></mask><linearGradient x1="0.054" x2="0.941" y1="0.5" y2="0.5" id="18e7b555-17ab-41d3-a12a-f8c00a25891c"><stop stop-color="#864d25" offset="0"></stop><stop stop-color="#f1c4b3" offset="0.498"></stop><stop stop-color="#864d25" offset="1"></stop></linearGradient><rect width="77.18073797291198" height="95.481" fill="url(#18e7b555-17ab-41d3-a12a-f8c00a25891c)" mask="url(#df9637eb-8e2d-48d4-b8cc-2a5b7adc8374)" data-fill-palette-color="accent"></rect></svg><rect width="77.18073797291198" height="95.481" fill="none" stroke="none" visibility="hidden"></rect></g></svg></g></svg>