<svg xmlns="http://www.w3.org/2000/svg" version="1.1" xmlns:xlink="http://www.w3.org/1999/xlink" xmlns:svgjs="http://svgjs.dev/svgjs" width="2000" height="459" viewBox="0 0 2000 459"><g transform="matrix(1,0,0,1,-1.2121212121212466,-1.2173906738564426)"><svg viewBox="0 0 396 91" data-background-color="#fff4e6" preserveAspectRatio="xMidYMid meet" height="459" width="2000" xmlns="http://www.w3.org/2000/svg" xmlns:xlink="http://www.w3.org/1999/xlink"><g id="tight-bounds" transform="matrix(1,0,0,1,0.2400000000000091,0.24135632096064796)"><svg viewBox="0 0 395.52 90.51728735807869" height="90.51728735807869" width="395.52"><g><svg viewBox="0 0 545.3861560338307 124.81511783685326" height="90.51728735807869" width="395.52"><g transform="matrix(1,0,0,1,149.8661560338307,35.878985284324216)"><svg viewBox="0 0 395.52 53.05714726820482" height="53.05714726820482" width="395.52"><g id="textblocktransform"><svg viewBox="0 0 395.52 53.05714726820482" height="53.05714726820482" width="395.52" id="textblock"><g><svg viewBox="0 0 395.52 53.05714726820482" height="53.05714726820482" width="395.52"><g transform="matrix(1,0,0,1,0,0)"><svg width="395.52" viewBox="3.25 -37.7 284.61 38.190000000000005" height="53.05714726820482" data-palette-color="#be9b7b"><path d="M10.25-13.99L10.25 0 3.25 0 3.25-35.01 27.76-35.01 27.76-28 10.25-28 10.25-21 20.75-21 20.75-13.99 10.25-13.99ZM37.35-36.55L37.35 0 30.64 0 30.64-36.55 37.35-36.55ZM67.74-26.1L67.74 0 66.13 0 63.54-3.59Q62.59-2.73 61.53-1.99 60.47-1.25 59.3-0.7 58.12-0.15 56.89 0.17 55.66 0.49 54.39 0.49L54.39 0.49Q51.63 0.49 49.2-0.44 46.77-1.37 44.95-3.14 43.13-4.91 42.08-7.47 41.04-10.03 41.04-13.31L41.04-13.31Q41.04-16.36 42.08-18.91 43.13-21.46 44.95-23.29 46.77-25.12 49.2-26.14 51.63-27.15 54.39-27.15L54.39-27.15Q55.66-27.15 56.9-26.83 58.15-26.51 59.32-25.95 60.49-25.39 61.56-24.63 62.62-23.88 63.54-23L63.54-23 66.13-26.1 67.74-26.1ZM61.03-13.31L61.03-13.31Q61.03-14.67 60.51-15.95 59.98-17.24 59.08-18.23 58.17-19.21 56.97-19.81 55.76-20.41 54.39-20.41L54.39-20.41Q53.02-20.41 51.81-19.95 50.61-19.48 49.71-18.58 48.82-17.68 48.31-16.35 47.8-15.01 47.8-13.31L47.8-13.31Q47.8-11.6 48.31-10.27 48.82-8.94 49.71-8.03 50.61-7.13 51.81-6.67 53.02-6.2 54.39-6.2L54.39-6.2Q55.76-6.2 56.97-6.8 58.17-7.4 59.08-8.39 59.98-9.38 60.51-10.66 61.03-11.94 61.03-13.31ZM86.93 0L80.24 0 70.28-26.15 77.87-26.15 83.59-9.84 89.27-26.15 96.89-26.15 86.93 0ZM123.94-13.31L123.94-13.31Q123.94-10.38 122.89-7.85 121.84-5.32 120.03-3.48 118.23-1.64 115.8-0.57 113.37 0.49 110.59 0.49L110.59 0.49Q107.83 0.49 105.4-0.57 102.97-1.64 101.15-3.48 99.33-5.32 98.28-7.85 97.23-10.38 97.23-13.31L97.23-13.31Q97.23-16.28 98.28-18.82 99.33-21.36 101.15-23.21 102.97-25.05 105.4-26.1 107.83-27.15 110.59-27.15L110.59-27.15Q113.37-27.15 115.8-26.16 118.23-25.17 120.03-23.35 121.84-21.53 122.89-18.98 123.94-16.43 123.94-13.31ZM117.23-13.31L117.23-13.31Q117.23-14.92 116.7-16.22 116.18-17.53 115.27-18.47 114.37-19.41 113.16-19.91 111.95-20.41 110.59-20.41L110.59-20.41Q109.22-20.41 108.01-19.91 106.8-19.41 105.91-18.47 105.02-17.53 104.51-16.22 103.99-14.92 103.99-13.31L103.99-13.31Q103.99-11.79 104.51-10.5 105.02-9.2 105.91-8.25 106.8-7.3 108.01-6.75 109.22-6.2 110.59-6.2L110.59-6.2Q111.95-6.2 113.16-6.71 114.37-7.23 115.27-8.15 116.18-9.08 116.7-10.4 117.23-11.72 117.23-13.31ZM134.29-14.4L134.29 0 127.62 0 127.62-26.15 129.24-26.15 131.43-23.05Q133.04-24.51 135.09-25.31 137.15-26.1 139.34-26.1L139.34-26.1 145.23-26.1 145.23-19.46 139.34-19.46Q138.29-19.46 137.37-19.07 136.44-18.68 135.75-17.99 135.07-17.31 134.68-16.38 134.29-15.45 134.29-14.4L134.29-14.4ZM156.04-13.99L156.04 0 149.03 0 149.03-35.01 173.54-35.01 173.54-28 156.04-28 156.04-21 166.54-21 166.54-13.99 156.04-13.99ZM184.28-33.25L184.28-33.25Q184.28-32.32 183.93-31.52 183.58-30.71 182.97-30.11 182.36-29.52 181.54-29.16 180.72-28.81 179.79-28.81L179.79-28.81Q178.86-28.81 178.05-29.16 177.23-29.52 176.63-30.11 176.03-30.71 175.68-31.52 175.32-32.32 175.32-33.25L175.32-33.25Q175.32-34.16 175.68-34.97 176.03-35.79 176.63-36.39 177.23-36.99 178.05-37.34 178.86-37.7 179.79-37.7L179.79-37.7Q180.72-37.7 181.54-37.34 182.36-36.99 182.97-36.39 183.58-35.79 183.93-34.97 184.28-34.16 184.28-33.25ZM183.14-26.15L183.14 0 176.42 0 176.42-26.15 183.14-26.15ZM211.11-21.46L198.61-6.4Q199-6.27 199.39-6.24 199.78-6.2 200.18-6.2L200.18-6.2Q201.15-6.2 202.06-6.47 202.96-6.74 203.75-7.24 204.55-7.74 205.17-8.46 205.79-9.18 206.18-10.06L206.18-10.06 211.06-5.15Q210.14-3.83 208.93-2.78 207.72-1.73 206.32-1 204.91-0.27 203.36 0.11 201.81 0.49 200.18 0.49L200.18 0.49Q197.42 0.49 194.99-0.54 192.56-1.56 190.74-3.39 188.92-5.22 187.87-7.75 186.82-10.28 186.82-13.31L186.82-13.31Q186.82-16.41 187.87-18.97 188.92-21.53 190.74-23.34 192.56-25.15 194.99-26.15 197.42-27.15 200.18-27.15L200.18-27.15Q201.81-27.15 203.37-26.76 204.94-26.37 206.34-25.63 207.74-24.9 208.96-23.84 210.19-22.78 211.11-21.46L211.11-21.46ZM194.27-9.84L202.03-20.14Q201.57-20.31 201.12-20.36 200.66-20.41 200.18-20.41L200.18-20.41Q198.81-20.41 197.6-19.91 196.39-19.41 195.5-18.48 194.61-17.55 194.1-16.25 193.58-14.94 193.58-13.31L193.58-13.31Q193.58-12.94 193.62-12.48 193.66-12.01 193.74-11.54 193.83-11.06 193.95-10.62 194.07-10.18 194.27-9.84L194.27-9.84ZM228.81 0L228.81 0 213.58 0 213.58-6.64 228.81-6.64Q229.49-6.64 229.98-7.13 230.47-7.62 230.47-8.3L230.47-8.3Q230.47-9.01 229.98-9.23 229.49-9.45 228.81-9.45L228.81-9.45 221.88-9.45Q220.14-9.45 218.63-10.11 217.12-10.77 215.99-11.9 214.87-13.04 214.22-14.55 213.58-16.06 213.58-17.8L213.58-17.8Q213.58-19.53 214.22-21.04 214.87-22.56 215.99-23.68 217.12-24.8 218.63-25.45 220.14-26.1 221.88-26.1L221.88-26.1 235.38-26.1 235.38-19.46 221.88-19.46Q221.19-19.46 220.71-18.97 220.22-18.48 220.22-17.8L220.22-17.8Q220.22-17.09 220.71-16.59 221.19-16.09 221.88-16.09L221.88-16.09 228.81-16.09Q230.52-16.09 232.03-15.52 233.55-14.94 234.67-13.92 235.79-12.89 236.45-11.45 237.11-10.01 237.11-8.3L237.11-8.3Q237.11-6.57 236.45-5.07 235.79-3.56 234.67-2.43 233.55-1.29 232.03-0.65 230.52 0 228.81 0ZM258.81 0L253.76 0Q251.34 0 249.22-0.92 247.09-1.83 245.5-3.43 243.9-5.03 242.98-7.15 242.06-9.28 242.06-11.69L242.06-11.69 242.06-19.46 238.82-19.46 238.82-26.1 242.06-26.1 242.06-36.55 248.71-36.55 248.71-26.1 258.81-26.1 258.81-19.46 248.71-19.46 248.71-11.69Q248.71-10.64 249.1-9.73 249.49-8.81 250.17-8.13 250.85-7.45 251.78-7.04 252.71-6.64 253.76-6.64L253.76-6.64 258.81-6.64 258.81 0ZM287.86-26.1L287.86 0 286.25 0 283.66-3.59Q282.71-2.73 281.65-1.99 280.59-1.25 279.42-0.7 278.24-0.15 277.01 0.17 275.78 0.49 274.51 0.49L274.51 0.49Q271.75 0.49 269.32-0.44 266.89-1.37 265.07-3.14 263.25-4.91 262.2-7.47 261.15-10.03 261.15-13.31L261.15-13.31Q261.15-16.36 262.2-18.91 263.25-21.46 265.07-23.29 266.89-25.12 269.32-26.14 271.75-27.15 274.51-27.15L274.51-27.15Q275.78-27.15 277.02-26.83 278.27-26.51 279.44-25.95 280.61-25.39 281.67-24.63 282.74-23.88 283.66-23L283.66-23 286.25-26.1 287.86-26.1ZM281.15-13.31L281.15-13.31Q281.15-14.67 280.62-15.95 280.1-17.24 279.2-18.23 278.29-19.21 277.08-19.81 275.88-20.41 274.51-20.41L274.51-20.41Q273.14-20.41 271.93-19.95 270.72-19.48 269.83-18.58 268.94-17.68 268.43-16.35 267.92-15.01 267.92-13.31L267.92-13.31Q267.92-11.6 268.43-10.27 268.94-8.94 269.83-8.03 270.72-7.13 271.93-6.67 273.14-6.2 274.51-6.2L274.51-6.2Q275.88-6.2 277.08-6.8 278.29-7.4 279.2-8.39 280.1-9.38 280.62-10.66 281.15-11.94 281.15-13.31Z" opacity="1" transform="matrix(1,0,0,1,0,0)" fill="#be9b7b" class="wordmark-text-0" data-fill-palette-color="primary" id="text-0"></path></svg></g></svg></g></svg></g></svg></g><g><svg viewBox="0 0 124.81511783685326 124.81511783685326" height="124.81511783685326" width="124.81511783685326"><g><svg></svg></g><g id="icon-0"><svg viewBox="0 0 124.81511783685326 124.81511783685326" height="124.81511783685326" width="124.81511783685326"><g></g><g transform="matrix(1,0,0,1,36.4571198851041,30.30403238554625)"><svg viewBox="0 0 51.90087806664506 64.20705306576076" height="64.20705306576076" width="51.90087806664506"><g><svg xmlns="http://www.w3.org/2000/svg" xmlns:xlink="http://www.w3.org/1999/xlink" version="1.1" x="0" y="0" viewBox="13.624863233920049 5 72.75024787719106 90" enable-background="new 0 0 100 100" xml:space="preserve" height="64.20705306576076" width="51.90087806664506" class="icon-cg-0" data-fill-palette-color="quaternary" id="cg-0"><path d="M83.544 61.669c-4.701-7.18-4.504-24.181-1.998-29.826 1.386-3.126-0.103-3.191-0.103-3.191h-9.737H61.97c0 0-1.491 0.065-0.104 3.191 2.505 5.645 2.701 22.646-2 29.826-6.368 9.729 0 17.306 0 17.306h11.84 11.838C83.544 78.975 89.914 71.397 83.544 61.669z" fill="#e8f2f1" data-fill-palette-color="quaternary"></path><path d="M73.858 8.848c0.602-0.407 0.979-0.979 0.979-1.615C74.838 6 73.437 5 71.706 5c-1.732 0-3.134 1-3.134 2.233 0 0.635 0.378 1.208 0.979 1.615 0.697-0.097 1.419-0.154 2.155-0.154C72.443 8.694 73.162 8.751 73.858 8.848z" fill="#e8f2f1" data-fill-palette-color="quaternary"></path><path d="M73.858 9.919c-0.696-0.095-1.415-0.15-2.152-0.15-0.736 0-1.457 0.055-2.155 0.15-5.4 0.742-9.489 4.208-9.489 8.375 0 1.701 0.688 3.28 1.861 4.612h19.565c1.173-1.333 1.86-2.912 1.86-4.612C83.349 14.127 79.26 10.662 73.858 9.919z" fill="#e8f2f1" data-fill-palette-color="quaternary"></path><path d="M81.91 24.41h-0.422H61.923h-0.422c-0.708 0-1.282 0.613-1.282 1.37 0 0.756 0.574 1.369 1.282 1.369h3.153 14.104 3.151c0.709 0 1.283-0.613 1.283-1.369C83.193 25.023 82.619 24.41 81.91 24.41z" fill="#e8f2f1" data-fill-palette-color="quaternary"></path><path d="M81.91 80.479h-0.422H61.923h-0.422c-0.708 0-1.282 0.613-1.282 1.37 0 0.758 0.574 1.37 1.282 1.37h3.153 14.104 3.151c0.709 0 1.283-0.612 1.283-1.37C83.193 81.092 82.619 80.479 81.91 80.479z" fill="#e8f2f1" data-fill-palette-color="quaternary"></path><path d="M82.269 84.722H61.142c-1.269 1.438-2.014 3.145-2.014 4.984 0 1.836 0.743 3.544 2.01 4.981h21.136c1.267-1.438 2.01-3.146 2.01-4.981C84.283 87.866 83.536 86.159 82.269 84.722z" fill="#e8f2f1" data-fill-palette-color="quaternary"></path><path d="M31.794 35.007c-0.697-0.095-1.416-0.151-2.153-0.151-0.736 0-1.458 0.056-2.155 0.151-5.4 0.741-9.489 4.207-9.489 8.374 0 1.7 0.688 3.28 1.861 4.612h19.564c1.174-1.332 1.861-2.912 1.861-4.612C41.283 39.214 37.195 35.748 31.794 35.007z" fill="#e8f2f1" data-fill-palette-color="quaternary"></path><path d="M39.845 49.496h-0.423H19.854h-0.42c-0.709 0-1.282 0.613-1.282 1.37 0 0.756 0.573 1.368 1.282 1.368h3.152 14.106 3.151c0.707 0 1.282-0.612 1.282-1.368C41.127 50.109 40.552 49.496 39.845 49.496z" fill="#e8f2f1" data-fill-palette-color="quaternary"></path><g fill="#e8f2f1" data-fill-palette-color="quaternary"><path d="M43.693 95H15.586l-0.276-0.358c-0.151-0.192-3.624-4.849-0.138-14.435 2.577-7.085 4.708-19.209 3.43-22.733-0.551-1.514-0.598-2.518-0.149-3.157 0.254-0.362 0.662-0.579 1.093-0.579l20.167 0.002c0 0 0.002 0 0.004 0 0.45 0 0.857 0.216 1.111 0.577 0.448 0.64 0.401 1.644-0.148 3.157-1.279 3.524 0.852 15.648 3.429 22.733 3.486 9.586 0.014 14.242-0.138 14.435L43.693 95zM16.553 93.158h26.174c0.63-1.174 2.237-5.203-0.352-12.321-2.417-6.649-5.017-19.61-3.428-23.992 0.231-0.635 0.312-1.033 0.334-1.266l-19.282 0.002c0.024 0.231 0.104 0.629 0.333 1.264 1.59 4.382-1.011 17.343-3.429 23.992C14.315 87.955 15.922 91.984 16.553 93.158z" fill="#e8f2f1" data-fill-palette-color="quaternary"></path></g><path d="M37.588 69.474H21.69c-0.401 3.938-1.698 9.024-2.97 12.184-2.69 6.684 0 9.828 0 9.828h10.415 0.504 0.503 10.416c0 0 2.692-3.145 0-9.828C39.286 78.498 37.989 73.411 37.588 69.474z" fill="#e8f2f1" data-fill-palette-color="quaternary"></path></svg></g></svg></g></svg></g></svg></g></svg></g><defs></defs><mask id="753c68e9-5dd9-4f4f-ad9c-36165195a2fb"><g id="SvgjsG1541"><svg viewBox="0 0 395.52 90.51728735807869" height="90.51728735807869" width="395.52"><g><svg viewBox="0 0 545.3861560338307 124.81511783685326" height="90.51728735807869" width="395.52"><g transform="matrix(1,0,0,1,149.8661560338307,35.878985284324216)"><svg viewBox="0 0 395.52 53.05714726820482" height="53.05714726820482" width="395.52"><g id="SvgjsG1540"><svg viewBox="0 0 395.52 53.05714726820482" height="53.05714726820482" width="395.52" id="SvgjsSvg1539"><g><svg viewBox="0 0 395.52 53.05714726820482" height="53.05714726820482" width="395.52"><g transform="matrix(1,0,0,1,0,0)"><svg width="395.52" viewBox="3.25 -37.7 284.61 38.190000000000005" height="53.05714726820482" data-palette-color="#be9b7b"><path d="M10.25-13.99L10.25 0 3.25 0 3.25-35.01 27.76-35.01 27.76-28 10.25-28 10.25-21 20.75-21 20.75-13.99 10.25-13.99ZM37.35-36.55L37.35 0 30.64 0 30.64-36.55 37.35-36.55ZM67.74-26.1L67.74 0 66.13 0 63.54-3.59Q62.59-2.73 61.53-1.99 60.47-1.25 59.3-0.7 58.12-0.15 56.89 0.17 55.66 0.49 54.39 0.49L54.39 0.49Q51.63 0.49 49.2-0.44 46.77-1.37 44.95-3.14 43.13-4.91 42.08-7.47 41.04-10.03 41.04-13.31L41.04-13.31Q41.04-16.36 42.08-18.91 43.13-21.46 44.95-23.29 46.77-25.12 49.2-26.14 51.63-27.15 54.39-27.15L54.39-27.15Q55.66-27.15 56.9-26.83 58.15-26.51 59.32-25.95 60.49-25.39 61.56-24.63 62.62-23.88 63.54-23L63.54-23 66.13-26.1 67.74-26.1ZM61.03-13.31L61.03-13.31Q61.03-14.67 60.51-15.95 59.98-17.24 59.08-18.23 58.17-19.21 56.97-19.81 55.76-20.41 54.39-20.41L54.39-20.41Q53.02-20.41 51.81-19.95 50.61-19.48 49.71-18.58 48.82-17.68 48.31-16.35 47.8-15.01 47.8-13.31L47.8-13.31Q47.8-11.6 48.31-10.27 48.82-8.94 49.71-8.03 50.61-7.13 51.81-6.67 53.02-6.2 54.39-6.2L54.39-6.2Q55.76-6.2 56.97-6.8 58.17-7.4 59.08-8.39 59.98-9.38 60.51-10.66 61.03-11.94 61.03-13.31ZM86.93 0L80.24 0 70.28-26.15 77.87-26.15 83.59-9.84 89.27-26.15 96.89-26.15 86.93 0ZM123.94-13.31L123.94-13.31Q123.94-10.38 122.89-7.85 121.84-5.32 120.03-3.48 118.23-1.64 115.8-0.57 113.37 0.49 110.59 0.49L110.59 0.49Q107.83 0.49 105.4-0.57 102.97-1.64 101.15-3.48 99.33-5.32 98.28-7.85 97.23-10.38 97.23-13.31L97.23-13.31Q97.23-16.28 98.28-18.82 99.33-21.36 101.15-23.21 102.97-25.05 105.4-26.1 107.83-27.15 110.59-27.15L110.59-27.15Q113.37-27.15 115.8-26.16 118.23-25.17 120.03-23.35 121.84-21.53 122.89-18.98 123.94-16.43 123.94-13.31ZM117.23-13.31L117.23-13.31Q117.23-14.92 116.7-16.22 116.18-17.53 115.27-18.47 114.37-19.41 113.16-19.91 111.95-20.41 110.59-20.41L110.59-20.41Q109.22-20.41 108.01-19.91 106.8-19.41 105.91-18.47 105.02-17.53 104.51-16.22 103.99-14.92 103.99-13.31L103.99-13.31Q103.99-11.79 104.51-10.5 105.02-9.2 105.91-8.25 106.8-7.3 108.01-6.75 109.22-6.2 110.59-6.2L110.59-6.2Q111.95-6.2 113.16-6.71 114.37-7.23 115.27-8.15 116.18-9.08 116.7-10.4 117.23-11.72 117.23-13.31ZM134.29-14.4L134.29 0 127.62 0 127.62-26.15 129.24-26.15 131.43-23.05Q133.04-24.51 135.09-25.31 137.15-26.1 139.34-26.1L139.34-26.1 145.23-26.1 145.23-19.46 139.34-19.46Q138.29-19.46 137.37-19.07 136.44-18.68 135.75-17.99 135.07-17.31 134.68-16.38 134.29-15.45 134.29-14.4L134.29-14.4ZM156.04-13.99L156.04 0 149.03 0 149.03-35.01 173.54-35.01 173.54-28 156.04-28 156.04-21 166.54-21 166.54-13.99 156.04-13.99ZM184.28-33.25L184.28-33.25Q184.28-32.32 183.93-31.52 183.58-30.71 182.97-30.11 182.36-29.52 181.54-29.16 180.72-28.81 179.79-28.81L179.79-28.81Q178.86-28.81 178.05-29.16 177.23-29.52 176.63-30.11 176.03-30.71 175.68-31.52 175.32-32.32 175.32-33.25L175.32-33.25Q175.32-34.16 175.68-34.97 176.03-35.79 176.63-36.39 177.23-36.99 178.05-37.34 178.86-37.7 179.79-37.7L179.79-37.7Q180.72-37.7 181.54-37.34 182.36-36.99 182.97-36.39 183.58-35.79 183.93-34.97 184.28-34.16 184.28-33.25ZM183.14-26.15L183.14 0 176.42 0 176.42-26.15 183.14-26.15ZM211.11-21.46L198.61-6.4Q199-6.27 199.39-6.24 199.78-6.2 200.18-6.2L200.18-6.2Q201.15-6.2 202.06-6.47 202.96-6.74 203.75-7.24 204.55-7.74 205.17-8.46 205.79-9.18 206.18-10.06L206.18-10.06 211.06-5.15Q210.14-3.83 208.93-2.78 207.72-1.73 206.32-1 204.91-0.27 203.36 0.11 201.81 0.49 200.18 0.49L200.18 0.49Q197.42 0.49 194.99-0.54 192.56-1.56 190.74-3.39 188.92-5.22 187.87-7.75 186.82-10.28 186.82-13.31L186.82-13.31Q186.82-16.41 187.87-18.97 188.92-21.53 190.74-23.34 192.56-25.15 194.99-26.15 197.42-27.15 200.18-27.15L200.18-27.15Q201.81-27.15 203.37-26.76 204.94-26.37 206.34-25.63 207.74-24.9 208.96-23.84 210.19-22.78 211.11-21.46L211.11-21.46ZM194.27-9.84L202.03-20.14Q201.57-20.31 201.12-20.36 200.66-20.41 200.18-20.41L200.18-20.41Q198.81-20.41 197.6-19.91 196.39-19.41 195.5-18.48 194.61-17.55 194.1-16.25 193.58-14.94 193.58-13.31L193.58-13.31Q193.58-12.94 193.62-12.48 193.66-12.01 193.74-11.54 193.83-11.06 193.95-10.62 194.07-10.18 194.27-9.84L194.27-9.84ZM228.81 0L228.81 0 213.58 0 213.58-6.64 228.81-6.64Q229.49-6.64 229.98-7.13 230.47-7.62 230.47-8.3L230.47-8.3Q230.47-9.01 229.98-9.23 229.49-9.45 228.81-9.45L228.81-9.45 221.88-9.45Q220.14-9.45 218.63-10.11 217.12-10.77 215.99-11.9 214.87-13.04 214.22-14.55 213.58-16.06 213.58-17.8L213.58-17.8Q213.58-19.53 214.22-21.04 214.87-22.56 215.99-23.68 217.12-24.8 218.63-25.45 220.14-26.1 221.88-26.1L221.88-26.1 235.38-26.1 235.38-19.46 221.88-19.46Q221.19-19.46 220.71-18.97 220.22-18.48 220.22-17.8L220.22-17.8Q220.22-17.09 220.71-16.59 221.19-16.09 221.88-16.09L221.88-16.09 228.81-16.09Q230.52-16.09 232.03-15.52 233.55-14.94 234.67-13.92 235.79-12.89 236.45-11.45 237.11-10.01 237.11-8.3L237.11-8.3Q237.11-6.57 236.45-5.07 235.79-3.56 234.67-2.43 233.55-1.29 232.03-0.65 230.52 0 228.81 0ZM258.81 0L253.76 0Q251.34 0 249.22-0.92 247.09-1.83 245.5-3.43 243.9-5.03 242.98-7.15 242.06-9.28 242.06-11.69L242.06-11.69 242.06-19.46 238.82-19.46 238.82-26.1 242.06-26.1 242.06-36.55 248.71-36.55 248.71-26.1 258.81-26.1 258.81-19.46 248.71-19.46 248.71-11.69Q248.71-10.64 249.1-9.73 249.49-8.81 250.17-8.13 250.85-7.45 251.78-7.04 252.71-6.64 253.76-6.64L253.76-6.64 258.81-6.64 258.81 0ZM287.86-26.1L287.86 0 286.25 0 283.66-3.59Q282.71-2.73 281.65-1.99 280.59-1.25 279.42-0.7 278.24-0.15 277.01 0.17 275.78 0.49 274.51 0.49L274.51 0.49Q271.75 0.49 269.32-0.44 266.89-1.37 265.07-3.14 263.25-4.91 262.2-7.47 261.15-10.03 261.15-13.31L261.15-13.31Q261.15-16.36 262.2-18.91 263.25-21.46 265.07-23.29 266.89-25.12 269.32-26.14 271.75-27.15 274.51-27.15L274.51-27.15Q275.78-27.15 277.02-26.83 278.27-26.51 279.44-25.95 280.61-25.39 281.67-24.63 282.74-23.88 283.66-23L283.66-23 286.25-26.1 287.86-26.1ZM281.15-13.31L281.15-13.31Q281.15-14.67 280.62-15.95 280.1-17.24 279.2-18.23 278.29-19.21 277.08-19.81 275.88-20.41 274.51-20.41L274.51-20.41Q273.14-20.41 271.93-19.95 270.72-19.48 269.83-18.58 268.94-17.68 268.43-16.35 267.92-15.01 267.92-13.31L267.92-13.31Q267.92-11.6 268.43-10.27 268.94-8.94 269.83-8.03 270.72-7.13 271.93-6.67 273.14-6.2 274.51-6.2L274.51-6.2Q275.88-6.2 277.08-6.8 278.29-7.4 279.2-8.39 280.1-9.38 280.62-10.66 281.15-11.94 281.15-13.31Z" opacity="1" transform="matrix(1,0,0,1,0,0)" fill="black" class="wordmark-text-0" id="SvgjsPath1538"></path></svg></g></svg></g></svg></g></svg></g><g><svg viewBox="0 0 124.81511783685326 124.81511783685326" height="124.81511783685326" width="124.81511783685326"><g><svg></svg></g><g id="SvgjsG1537"><svg viewBox="0 0 124.81511783685326 124.81511783685326" height="124.81511783685326" width="124.81511783685326"><g><path d="M0 62.408c0-34.467 27.941-62.408 62.408-62.408 34.467 0 62.408 27.941 62.407 62.408 0 34.467-27.941 62.408-62.407 62.407-34.467 0-62.408-27.941-62.408-62.407zM62.408 120.03c31.824 0 57.623-25.799 57.622-57.622 0-31.824-25.799-57.623-57.622-57.623-31.824 0-57.623 25.799-57.623 57.623 0 31.824 25.799 57.623 57.623 57.622z" fill="white" stroke="transparent"></path><ellipse rx="61.783483329242365" ry="61.783483329242365" cx="62.40755891842663" cy="62.40755891842663" fill="white" stroke="transparent" stroke-width="0" fill-opacity="1"></ellipse></g><g transform="matrix(1,0,0,1,36.4571198851041,30.30403238554625)"><svg viewBox="0 0 51.90087806664506 64.20705306576076" height="64.20705306576076" width="51.90087806664506"><g><svg xmlns="http://www.w3.org/2000/svg" xmlns:xlink="http://www.w3.org/1999/xlink" version="1.1" x="0" y="0" viewBox="13.624863233920049 5 72.75024787719106 90" enable-background="new 0 0 100 100" xml:space="preserve" height="64.20705306576076" width="51.90087806664506" class="icon-cg-0" data-fill-palette-color="quaternary" id="SvgjsSvg1536"><path d="M83.544 61.669c-4.701-7.18-4.504-24.181-1.998-29.826 1.386-3.126-0.103-3.191-0.103-3.191h-9.737H61.97c0 0-1.491 0.065-0.104 3.191 2.505 5.645 2.701 22.646-2 29.826-6.368 9.729 0 17.306 0 17.306h11.84 11.838C83.544 78.975 89.914 71.397 83.544 61.669z" fill="black"></path><path d="M73.858 8.848c0.602-0.407 0.979-0.979 0.979-1.615C74.838 6 73.437 5 71.706 5c-1.732 0-3.134 1-3.134 2.233 0 0.635 0.378 1.208 0.979 1.615 0.697-0.097 1.419-0.154 2.155-0.154C72.443 8.694 73.162 8.751 73.858 8.848z" fill="black"></path><path d="M73.858 9.919c-0.696-0.095-1.415-0.15-2.152-0.15-0.736 0-1.457 0.055-2.155 0.15-5.4 0.742-9.489 4.208-9.489 8.375 0 1.701 0.688 3.28 1.861 4.612h19.565c1.173-1.333 1.86-2.912 1.86-4.612C83.349 14.127 79.26 10.662 73.858 9.919z" fill="black"></path><path d="M81.91 24.41h-0.422H61.923h-0.422c-0.708 0-1.282 0.613-1.282 1.37 0 0.756 0.574 1.369 1.282 1.369h3.153 14.104 3.151c0.709 0 1.283-0.613 1.283-1.369C83.193 25.023 82.619 24.41 81.91 24.41z" fill="black"></path><path d="M81.91 80.479h-0.422H61.923h-0.422c-0.708 0-1.282 0.613-1.282 1.37 0 0.758 0.574 1.37 1.282 1.37h3.153 14.104 3.151c0.709 0 1.283-0.612 1.283-1.37C83.193 81.092 82.619 80.479 81.91 80.479z" fill="black"></path><path d="M82.269 84.722H61.142c-1.269 1.438-2.014 3.145-2.014 4.984 0 1.836 0.743 3.544 2.01 4.981h21.136c1.267-1.438 2.01-3.146 2.01-4.981C84.283 87.866 83.536 86.159 82.269 84.722z" fill="black"></path><path d="M31.794 35.007c-0.697-0.095-1.416-0.151-2.153-0.151-0.736 0-1.458 0.056-2.155 0.151-5.4 0.741-9.489 4.207-9.489 8.374 0 1.7 0.688 3.28 1.861 4.612h19.564c1.174-1.332 1.861-2.912 1.861-4.612C41.283 39.214 37.195 35.748 31.794 35.007z" fill="black"></path><path d="M39.845 49.496h-0.423H19.854h-0.42c-0.709 0-1.282 0.613-1.282 1.37 0 0.756 0.573 1.368 1.282 1.368h3.152 14.106 3.151c0.707 0 1.282-0.612 1.282-1.368C41.127 50.109 40.552 49.496 39.845 49.496z" fill="black"></path><g fill="black"><path d="M43.693 95H15.586l-0.276-0.358c-0.151-0.192-3.624-4.849-0.138-14.435 2.577-7.085 4.708-19.209 3.43-22.733-0.551-1.514-0.598-2.518-0.149-3.157 0.254-0.362 0.662-0.579 1.093-0.579l20.167 0.002c0 0 0.002 0 0.004 0 0.45 0 0.857 0.216 1.111 0.577 0.448 0.64 0.401 1.644-0.148 3.157-1.279 3.524 0.852 15.648 3.429 22.733 3.486 9.586 0.014 14.242-0.138 14.435L43.693 95zM16.553 93.158h26.174c0.63-1.174 2.237-5.203-0.352-12.321-2.417-6.649-5.017-19.61-3.428-23.992 0.231-0.635 0.312-1.033 0.334-1.266l-19.282 0.002c0.024 0.231 0.104 0.629 0.333 1.264 1.59 4.382-1.011 17.343-3.429 23.992C14.315 87.955 15.922 91.984 16.553 93.158z" fill="black"></path></g><path d="M37.588 69.474H21.69c-0.401 3.938-1.698 9.024-2.97 12.184-2.69 6.684 0 9.828 0 9.828h10.415 0.504 0.503 10.416c0 0 2.692-3.145 0-9.828C39.286 78.498 37.989 73.411 37.588 69.474z" fill="black"></path></svg></g></svg></g></svg></g></svg></g></svg></g><defs><mask></mask></defs></svg><rect width="395.52" height="90.51728735807869" fill="black" stroke="none" visibility="hidden"></rect></g></mask><linearGradient x1="0.054" x2="0.941" y1="0.5" y2="0.5" id="0360b348-84d1-4b7e-93c8-6a9dae587448"><stop stop-color="#864d25" offset="0"></stop><stop stop-color="#f1c4b3" offset="0.498"></stop><stop stop-color="#864d25" offset="1"></stop></linearGradient><rect width="395.52" height="90.51728735807869" fill="url(#0360b348-84d1-4b7e-93c8-6a9dae587448)" mask="url(#753c68e9-5dd9-4f4f-ad9c-36165195a2fb)" data-fill-palette-color="accent"></rect></svg><rect width="395.52" height="90.51728735807869" fill="none" stroke="none" visibility="hidden"></rect></g></svg></g></svg>