<svg xmlns="http://www.w3.org/2000/svg" version="1.1" xmlns:xlink="http://www.w3.org/1999/xlink" xmlns:svgjs="http://svgjs.dev/svgjs" width="2000" height="277" viewBox="0 0 2000 277"><g transform="matrix(1,0,0,1,-1.2121212121212466,-0.08197709270950782)"><svg viewBox="0 0 396 55" data-background-color="#e8f2f1" preserveAspectRatio="xMidYMid meet" height="277" width="2000" xmlns="http://www.w3.org/2000/svg" xmlns:xlink="http://www.w3.org/1999/xlink"><g id="tight-bounds" transform="matrix(1,0,0,1,0.2400000000000091,0.016277040068672477)"><svg viewBox="0 0 395.52 54.96744591986265" height="54.96744591986265" width="395.52"><g><svg viewBox="0 0 527.6122007348604 73.32497752465908" height="54.96744591986265" width="395.52"><g><rect width="4.784748295622692" height="63.66857672184578" x="114.78193334074899" y="4.828200401406647" fill="#c9b0d8" opacity="1" stroke-width="0" stroke="transparent" fill-opacity="1" class="rect-qz-0" data-fill-palette-color="primary" rx="1%" id="qz-0" data-palette-color="#c9b0d8"></rect></g><g transform="matrix(1,0,0,1,132.0922007348604,10.133915128227127)"><svg viewBox="0 0 395.52 53.05714726820482" height="53.05714726820482" width="395.52"><g id="textblocktransform"><svg viewBox="0 0 395.52 53.05714726820482" height="53.05714726820482" width="395.52" id="textblock"><g><svg viewBox="0 0 395.52 53.05714726820482" height="53.05714726820482" width="395.52"><g transform="matrix(1,0,0,1,0,0)"><svg width="395.52" viewBox="3.25 -37.7 284.61 38.190000000000005" height="53.05714726820482" data-palette-color="#c9b0d8"><path d="M10.25-13.99L10.25 0 3.25 0 3.25-35.01 27.76-35.01 27.76-28 10.25-28 10.25-21 20.75-21 20.75-13.99 10.25-13.99ZM37.35-36.55L37.35 0 30.64 0 30.64-36.55 37.35-36.55ZM67.74-26.1L67.74 0 66.13 0 63.54-3.59Q62.59-2.73 61.53-1.99 60.47-1.25 59.3-0.7 58.12-0.15 56.89 0.17 55.66 0.49 54.39 0.49L54.39 0.49Q51.63 0.49 49.2-0.44 46.77-1.37 44.95-3.14 43.13-4.91 42.08-7.47 41.04-10.03 41.04-13.31L41.04-13.31Q41.04-16.36 42.08-18.91 43.13-21.46 44.95-23.29 46.77-25.12 49.2-26.14 51.63-27.15 54.39-27.15L54.39-27.15Q55.66-27.15 56.9-26.83 58.15-26.51 59.32-25.95 60.49-25.39 61.56-24.63 62.62-23.88 63.54-23L63.54-23 66.13-26.1 67.74-26.1ZM61.03-13.31L61.03-13.31Q61.03-14.67 60.51-15.95 59.98-17.24 59.08-18.23 58.17-19.21 56.97-19.81 55.76-20.41 54.39-20.41L54.39-20.41Q53.02-20.41 51.81-19.95 50.61-19.48 49.71-18.58 48.82-17.68 48.31-16.35 47.8-15.01 47.8-13.31L47.8-13.31Q47.8-11.6 48.31-10.27 48.82-8.94 49.71-8.03 50.61-7.13 51.81-6.67 53.02-6.2 54.39-6.2L54.39-6.2Q55.76-6.2 56.97-6.8 58.17-7.4 59.08-8.39 59.98-9.38 60.51-10.66 61.03-11.94 61.03-13.31ZM86.93 0L80.24 0 70.28-26.15 77.87-26.15 83.59-9.84 89.27-26.15 96.89-26.15 86.93 0ZM123.94-13.31L123.94-13.31Q123.94-10.38 122.89-7.85 121.84-5.32 120.03-3.48 118.23-1.64 115.8-0.57 113.37 0.49 110.59 0.49L110.59 0.49Q107.83 0.49 105.4-0.57 102.97-1.64 101.15-3.48 99.33-5.32 98.28-7.85 97.23-10.38 97.23-13.31L97.23-13.31Q97.23-16.28 98.28-18.82 99.33-21.36 101.15-23.21 102.97-25.05 105.4-26.1 107.83-27.15 110.59-27.15L110.59-27.15Q113.37-27.15 115.8-26.16 118.23-25.17 120.03-23.35 121.84-21.53 122.89-18.98 123.94-16.43 123.94-13.31ZM117.23-13.31L117.23-13.31Q117.23-14.92 116.7-16.22 116.18-17.53 115.27-18.47 114.37-19.41 113.16-19.91 111.95-20.41 110.59-20.41L110.59-20.41Q109.22-20.41 108.01-19.91 106.8-19.41 105.91-18.47 105.02-17.53 104.51-16.22 103.99-14.92 103.99-13.31L103.99-13.31Q103.99-11.79 104.51-10.5 105.02-9.2 105.91-8.25 106.8-7.3 108.01-6.75 109.22-6.2 110.59-6.2L110.59-6.2Q111.95-6.2 113.16-6.71 114.37-7.23 115.27-8.15 116.18-9.08 116.7-10.4 117.23-11.72 117.23-13.31ZM134.29-14.4L134.29 0 127.62 0 127.62-26.15 129.24-26.15 131.43-23.05Q133.04-24.51 135.09-25.31 137.15-26.1 139.34-26.1L139.34-26.1 145.23-26.1 145.23-19.46 139.34-19.46Q138.29-19.46 137.37-19.07 136.44-18.68 135.75-17.99 135.07-17.31 134.68-16.38 134.29-15.45 134.29-14.4L134.29-14.4ZM156.04-13.99L156.04 0 149.03 0 149.03-35.01 173.54-35.01 173.54-28 156.04-28 156.04-21 166.54-21 166.54-13.99 156.04-13.99ZM184.28-33.25L184.28-33.25Q184.28-32.32 183.93-31.52 183.58-30.71 182.97-30.11 182.36-29.52 181.54-29.16 180.72-28.81 179.79-28.81L179.79-28.81Q178.86-28.81 178.05-29.16 177.23-29.52 176.63-30.11 176.03-30.71 175.68-31.52 175.32-32.32 175.32-33.25L175.32-33.25Q175.32-34.16 175.68-34.97 176.03-35.79 176.63-36.39 177.23-36.99 178.05-37.34 178.86-37.7 179.79-37.7L179.79-37.7Q180.72-37.7 181.54-37.34 182.36-36.99 182.97-36.39 183.58-35.79 183.93-34.97 184.28-34.16 184.28-33.25ZM183.14-26.15L183.14 0 176.42 0 176.42-26.15 183.14-26.15ZM211.11-21.46L198.61-6.4Q199-6.27 199.39-6.24 199.78-6.2 200.18-6.2L200.18-6.2Q201.15-6.2 202.06-6.47 202.96-6.74 203.75-7.24 204.55-7.74 205.17-8.46 205.79-9.18 206.18-10.06L206.18-10.06 211.06-5.15Q210.14-3.83 208.93-2.78 207.72-1.73 206.32-1 204.91-0.27 203.36 0.11 201.81 0.49 200.18 0.49L200.18 0.49Q197.42 0.49 194.99-0.54 192.56-1.56 190.74-3.39 188.92-5.22 187.87-7.75 186.82-10.28 186.82-13.31L186.82-13.31Q186.82-16.41 187.87-18.97 188.92-21.53 190.74-23.34 192.56-25.15 194.99-26.15 197.42-27.15 200.18-27.15L200.18-27.15Q201.81-27.15 203.37-26.76 204.94-26.37 206.34-25.63 207.74-24.9 208.96-23.84 210.19-22.78 211.11-21.46L211.11-21.46ZM194.27-9.84L202.03-20.14Q201.57-20.31 201.12-20.36 200.66-20.41 200.18-20.41L200.18-20.41Q198.81-20.41 197.6-19.91 196.39-19.41 195.5-18.48 194.61-17.55 194.1-16.25 193.58-14.94 193.58-13.31L193.58-13.31Q193.58-12.94 193.62-12.48 193.66-12.01 193.74-11.54 193.83-11.06 193.95-10.62 194.07-10.18 194.27-9.84L194.27-9.84ZM228.81 0L228.81 0 213.58 0 213.58-6.64 228.81-6.64Q229.49-6.64 229.98-7.13 230.47-7.62 230.47-8.3L230.47-8.3Q230.47-9.01 229.98-9.23 229.49-9.45 228.81-9.45L228.81-9.45 221.88-9.45Q220.14-9.45 218.63-10.11 217.12-10.77 215.99-11.9 214.87-13.04 214.22-14.55 213.58-16.06 213.58-17.8L213.58-17.8Q213.58-19.53 214.22-21.04 214.87-22.56 215.99-23.68 217.12-24.8 218.63-25.45 220.14-26.1 221.88-26.1L221.88-26.1 235.38-26.1 235.38-19.46 221.88-19.46Q221.19-19.46 220.71-18.97 220.22-18.48 220.22-17.8L220.22-17.8Q220.22-17.09 220.71-16.59 221.19-16.09 221.88-16.09L221.88-16.09 228.81-16.09Q230.52-16.09 232.03-15.52 233.55-14.94 234.67-13.92 235.79-12.89 236.45-11.45 237.11-10.01 237.11-8.3L237.11-8.3Q237.11-6.57 236.45-5.07 235.79-3.56 234.67-2.43 233.55-1.29 232.03-0.65 230.52 0 228.81 0ZM258.81 0L253.76 0Q251.34 0 249.22-0.92 247.09-1.83 245.5-3.43 243.9-5.03 242.98-7.15 242.06-9.28 242.06-11.69L242.06-11.69 242.06-19.46 238.82-19.46 238.82-26.1 242.06-26.1 242.06-36.55 248.71-36.55 248.71-26.1 258.81-26.1 258.81-19.46 248.71-19.46 248.71-11.69Q248.71-10.64 249.1-9.73 249.49-8.81 250.17-8.13 250.85-7.45 251.78-7.04 252.71-6.64 253.76-6.64L253.76-6.64 258.81-6.64 258.81 0ZM287.86-26.1L287.86 0 286.25 0 283.66-3.59Q282.71-2.73 281.65-1.99 280.59-1.25 279.42-0.7 278.24-0.15 277.01 0.17 275.78 0.49 274.51 0.49L274.51 0.49Q271.75 0.49 269.32-0.44 266.89-1.37 265.07-3.14 263.25-4.91 262.2-7.47 261.15-10.03 261.15-13.31L261.15-13.31Q261.15-16.36 262.2-18.91 263.25-21.46 265.07-23.29 266.89-25.12 269.32-26.14 271.75-27.15 274.51-27.15L274.51-27.15Q275.78-27.15 277.02-26.83 278.27-26.51 279.44-25.95 280.61-25.39 281.67-24.63 282.74-23.88 283.66-23L283.66-23 286.25-26.1 287.86-26.1ZM281.15-13.31L281.15-13.31Q281.15-14.67 280.62-15.95 280.1-17.24 279.2-18.23 278.29-19.21 277.08-19.81 275.88-20.41 274.51-20.41L274.51-20.41Q273.14-20.41 271.93-19.95 270.72-19.48 269.83-18.58 268.94-17.68 268.43-16.35 267.92-15.01 267.92-13.31L267.92-13.31Q267.92-11.6 268.43-10.27 268.94-8.94 269.83-8.03 270.72-7.13 271.93-6.67 273.14-6.2 274.51-6.2L274.51-6.2Q275.88-6.2 277.08-6.8 278.29-7.4 279.2-8.39 280.1-9.38 280.62-10.66 281.15-11.94 281.15-13.31Z" opacity="1" transform="matrix(1,0,0,1,0,0)" fill="#c9b0d8" class="wordmark-text-0" data-fill-palette-color="primary" id="text-0"></path></svg></g></svg></g></svg></g></svg></g><g><svg viewBox="0 0 102.25641424226026 73.32497752465908" height="73.32497752465908" width="102.25641424226026"><g><svg xmlns="http://www.w3.org/2000/svg" xmlns:xlink="http://www.w3.org/1999/xlink" version="1.1" x="0" y="0" viewBox="4.8100000000000005 17.204 86.10878266794202 61.746" enable-background="new 0 0 100 100" xml:space="preserve" height="73.32497752465908" width="102.25641424226026" class="icon-icon-0" data-fill-palette-color="accent" id="icon-0"><path d="M90.839 51.986c-0.24-0.63-0.945-0.946-1.575-0.707-0.06 0.023-0.103 0.068-0.157 0.099-0.141 0.51-0.328 1.002-0.545 1.483 0.242 0.624 0.943 0.938 1.57 0.7C90.762 53.321 91.078 52.616 90.839 51.986z" fill="#ff5093" data-fill-palette-color="accent"></path><path d="M7.871 32.197c0.161-0.699 0.421-1.361 0.724-2.007-0.209-0.13-0.447-0.217-0.711-0.2-0.673 0.044-1.182 0.624-1.139 1.297 0.039 0.606 0.52 1.057 1.106 1.113C7.865 32.333 7.856 32.263 7.871 32.197z" fill="#ff5093" data-fill-palette-color="accent"></path><circle cx="45.494" cy="56.342" r="23" fill="#ff5093" data-fill-palette-color="accent"></circle><circle cx="68.507" cy="65.429" r="1.2" fill="#ff5093" data-fill-palette-color="accent"></circle><circle cx="72.267" cy="65.074" r="1.2" fill="#ff5093" data-fill-palette-color="accent"></circle><circle cx="76.027" cy="64.209" r="1.2" fill="#ff5093" data-fill-palette-color="accent"></circle><circle cx="79.786" cy="63.343" r="1.2" fill="#ff5093" data-fill-palette-color="accent"></circle><circle cx="6.03" cy="36.437" r="1.2" fill="#ff5093" data-fill-palette-color="accent"></circle><circle cx="6.743" cy="41.112" r="1.2" fill="#ff5093" data-fill-palette-color="accent"></circle><circle cx="8.87" cy="44.33" r="1.2" fill="#ff5093" data-fill-palette-color="accent"></circle><circle cx="10.997" cy="47.987" r="1.2" fill="#ff5093" data-fill-palette-color="accent"></circle><circle cx="14.206" cy="50.129" r="1.2" fill="#ff5093" data-fill-palette-color="accent"></circle><circle cx="17.415" cy="52.271" r="1.2" fill="#ff5093" data-fill-palette-color="accent"></circle><circle cx="20.624" cy="54.412" r="1.2" fill="#ff5093" data-fill-palette-color="accent"></circle><circle cx="83.087" cy="61.419" r="1.2" fill="#ff5093" data-fill-palette-color="accent"></circle><circle cx="86.044" cy="58.941" r="1.2" fill="#ff5093" data-fill-palette-color="accent"></circle><circle cx="89" cy="56.462" r="1.2" fill="#ff5093" data-fill-palette-color="accent"></circle><path d="M88.557 52.854c-0.217-0.57 0.036-1.183 0.55-1.476 0.037-0.135 0.113-0.255 0.144-0.392 0.142-0.616 0.208-1.24 0.234-1.868-0.097 0.368-0.343 0.691-0.725 0.836-0.63 0.24-1.335-0.077-1.574-0.707-0.24-0.63 0.077-1.335 0.707-1.574 0.63-0.24 1.335 0.076 1.574 0.706 0.006 0.016 0.003 0.032 0.008 0.048-0.206-7.926-9.31-16.527-22.923-22.268-4.129-5.432-10.64-8.955-17.99-8.955-3.777 0-7.33 0.939-10.46 2.577-14.545-0.588-26.19 3.298-29.514 10.423 0.132 0.091 0.248 0.209 0.338 0.353 0.358 0.571 0.187 1.324-0.384 1.683-0.215 0.135-0.455 0.172-0.691 0.164-1.399 6.697 4.164 14.16 13.877 20.113 1.842-11.472 11.781-20.274 23.766-20.274 13.289 0 24.102 10.812 24.102 24.099 0 2.342-0.352 4.601-0.979 6.744 9.975-1.098 17.44-4.698 19.946-10.225C88.561 52.858 88.558 52.857 88.557 52.854zM11.808 30.188c-0.571 0.359-1.324 0.187-1.683-0.384-0.358-0.571-0.187-1.324 0.384-1.683 0.571-0.359 1.324-0.187 1.682 0.384C12.551 29.076 12.379 29.829 11.808 30.188zM14.966 27.838c-0.641 0.207-1.329-0.144-1.537-0.786-0.207-0.641 0.144-1.329 0.786-1.537 0.641-0.207 1.329 0.144 1.537 0.786C15.958 26.943 15.607 27.631 14.966 27.838zM18.636 26.651c-0.641 0.207-1.329-0.144-1.537-0.786-0.208-0.641 0.144-1.329 0.786-1.537 0.641-0.207 1.329 0.144 1.537 0.786C19.629 25.756 19.277 26.444 18.636 26.651zM22.307 25.464c-0.641 0.208-1.329-0.144-1.537-0.786-0.207-0.641 0.144-1.329 0.786-1.537s1.329 0.144 1.537 0.786C23.3 24.568 22.948 25.256 22.307 25.464zM25.978 24.277c-0.641 0.208-1.329-0.144-1.537-0.786-0.207-0.641 0.144-1.329 0.786-1.537 0.641-0.207 1.329 0.144 1.537 0.786C26.971 23.381 26.619 24.069 25.978 24.277zM29.698 23.939c-0.673-0.042-1.184-0.622-1.142-1.294 0.042-0.673 0.622-1.184 1.294-1.142 0.673 0.042 1.184 0.622 1.142 1.294C30.95 23.469 30.371 23.981 29.698 23.939zM33.549 24.18c-0.673-0.042-1.184-0.622-1.142-1.294 0.042-0.673 0.622-1.184 1.294-1.142 0.673 0.042 1.184 0.622 1.142 1.294C34.801 23.71 34.221 24.222 33.549 24.18zM37.399 24.421c-0.673-0.042-1.184-0.622-1.142-1.294 0.042-0.673 0.622-1.184 1.294-1.142 0.673 0.042 1.184 0.622 1.142 1.294C38.651 23.951 38.072 24.463 37.399 24.421zM41.25 24.662c-0.673-0.042-1.184-0.622-1.142-1.294 0.042-0.673 0.622-1.184 1.294-1.142 0.673 0.042 1.184 0.622 1.142 1.294C42.502 24.192 41.922 24.704 41.25 24.662zM45.962 25.288c-0.662-0.127-1.095-0.767-0.967-1.429s0.768-1.095 1.429-0.967 1.095 0.768 0.967 1.429C47.264 24.982 46.624 25.415 45.962 25.288zM49.751 26.018c-0.662-0.128-1.095-0.768-0.967-1.429 0.128-0.662 0.768-1.095 1.429-0.967 0.662 0.128 1.095 0.767 0.967 1.429C51.052 25.713 50.412 26.146 49.751 26.018zM53.539 26.748c-0.662-0.128-1.095-0.768-0.967-1.429 0.128-0.662 0.768-1.095 1.429-0.967 0.662 0.127 1.095 0.767 0.967 1.429S54.201 26.876 53.539 26.748zM57.327 27.479c-0.662-0.128-1.095-0.768-0.967-1.429 0.128-0.662 0.768-1.095 1.429-0.967 0.662 0.128 1.095 0.768 0.967 1.429S57.989 27.607 57.327 27.479zM63.371 28.246c-0.26 0.622-0.974 0.916-1.596 0.656-0.622-0.259-0.916-0.974-0.656-1.596 0.259-0.622 0.974-0.916 1.596-0.656C63.337 26.909 63.631 27.624 63.371 28.246zM66.932 29.732c-0.26 0.622-0.974 0.916-1.596 0.656-0.622-0.26-0.916-0.974-0.656-1.596 0.26-0.622 0.974-0.916 1.596-0.656C66.897 28.395 67.191 29.11 66.932 29.732zM70.492 31.218c-0.26 0.622-0.974 0.916-1.596 0.656-0.622-0.26-0.916-0.974-0.656-1.596 0.26-0.622 0.974-0.916 1.596-0.656C70.458 29.881 70.752 30.596 70.492 31.218zM74.052 32.704c-0.26 0.622-0.974 0.916-1.596 0.656-0.622-0.26-0.916-0.974-0.656-1.596 0.26-0.622 0.974-0.916 1.596-0.656C74.018 31.367 74.312 32.082 74.052 32.704zM77.611 35.508c-0.447 0.505-1.218 0.552-1.723 0.105-0.505-0.447-0.552-1.218-0.105-1.723 0.447-0.505 1.218-0.552 1.723-0.105C78.01 34.232 78.057 35.003 77.611 35.508zM80.5 38.065c-0.447 0.505-1.218 0.552-1.723 0.105-0.505-0.447-0.552-1.218-0.105-1.723 0.447-0.505 1.218-0.552 1.722-0.105C80.899 36.789 80.946 37.56 80.5 38.065zM83.389 40.622c-0.447 0.505-1.218 0.552-1.723 0.105-0.505-0.447-0.552-1.218-0.105-1.723 0.447-0.505 1.218-0.552 1.723-0.105C83.789 39.346 83.836 40.117 83.389 40.622zM84.556 43.283c-0.505-0.447-0.552-1.218-0.105-1.723 0.447-0.505 1.218-0.552 1.723-0.105 0.505 0.447 0.552 1.218 0.105 1.723C85.832 43.683 85.06 43.73 84.556 43.283zM85.813 45.643c-0.24-0.63 0.077-1.335 0.707-1.575 0.63-0.24 1.335 0.077 1.575 0.707 0.24 0.63-0.077 1.335-0.707 1.575C86.758 46.589 86.053 46.273 85.813 45.643z" fill="#ff5093" data-fill-palette-color="accent"></path></svg></g></svg></g></svg></g><defs></defs></svg><rect width="395.52" height="54.96744591986265" fill="none" stroke="none" visibility="hidden"></rect></g></svg></g></svg>